<?xml version="1.0" encoding="utf-8"?>
<!-- Generator: Adobe Illustrator 16.0.3, SVG Export Plug-In . SVG Version: 6.00 Build 0)  -->
<!DOCTYPE svg PUBLIC "-//W3C//DTD SVG 1.1//EN" "http://www.w3.org/Graphics/SVG/1.1/DTD/svg11.dtd">
<svg version="1.1" id="Слой_1" xmlns="http://www.w3.org/2000/svg" xmlns:xlink="http://www.w3.org/1999/xlink" x="0px" y="0px"
	 width="750px" height="500px" viewBox="0 0 750 500" enable-background="new 0 0 750 500" xml:space="preserve">
<g>
	<g id="OBJECTS">
		<g>
			<g>
				<defs>
					<rect id="SVGID_1_" x="48.713" y="0.313" width="780.62" height="499.374"/>
				</defs>
				<clipPath id="SVGID_2_">
					<use xlink:href="#SVGID_1_"  overflow="visible"/>
				</clipPath>
				<path clip-path="url(#SVGID_2_)" fill="#1B034B" d="M590.153-85.582c0,0-87.591,91.964-121.072,126.115
					c-33.482,34.152-24.401,56.25,4.208,48.214c28.604-8.036,60.078-18.793,43.336,1.652
					c-16.74,20.445-104.071,103.158-104.071,103.158l16.35,89.383c0,0,60.324,21.246,98.8,40.421
					c38.477,19.177,42.157,28.327,29.77,29.108s-28.125,2.904-15.401,14.565c12.725,11.662,175.444,152.73,175.444,152.73
					l215.621-5.456V-85.582H590.153z"/>
			</g>
			<g>
				<defs>
					<rect id="SVGID_3_" x="48.713" y="0.313" width="780.62" height="499.374"/>
				</defs>
				<clipPath id="SVGID_4_">
					<use xlink:href="#SVGID_3_"  overflow="visible"/>
				</clipPath>
				<g opacity="0.5" clip-path="url(#SVGID_4_)">
					
						<rect x="767.068" y="140.638" transform="matrix(-0.641 0.7676 -0.7676 -0.641 1499.3101 -340.8286)" fill="none" stroke="#79D3FE" stroke-linejoin="round" stroke-miterlimit="10" width="124.597" height="79.196"/>
					
						<rect x="792.743" y="140.645" transform="matrix(-0.641 0.7676 -0.7676 -0.641 1499.3188 -340.8267)" fill="none" stroke="#79D3FE" stroke-linejoin="round" stroke-miterlimit="10" width="73.257" height="79.199"/>
					
						<rect x="816.956" y="140.712" transform="matrix(-0.641 0.7675 -0.7675 -0.641 1499.3198 -340.6655)" fill="none" stroke="#79D3FE" stroke-linejoin="round" stroke-miterlimit="10" width="24.748" height="79.19"/>
					
						<line fill="none" stroke="#79D3FE" stroke-linejoin="round" stroke-miterlimit="10" x1="774.258" y1="215.43" x2="854.117" y2="119.799"/>
					
						<line fill="none" stroke="#79D3FE" stroke-linejoin="round" stroke-miterlimit="10" x1="789.405" y1="228.078" x2="869.262" y2="132.446"/>
					
						<line fill="none" stroke="#79D3FE" stroke-linejoin="round" stroke-miterlimit="10" x1="804.549" y1="240.725" x2="884.408" y2="145.093"/>
				</g>
			</g>
			<g>
				<defs>
					<rect id="SVGID_5_" x="48.713" y="0.313" width="780.62" height="499.374"/>
				</defs>
				<clipPath id="SVGID_6_">
					<use xlink:href="#SVGID_5_"  overflow="visible"/>
				</clipPath>
				<g clip-path="url(#SVGID_6_)">
					<polygon fill="#0197F8" points="297.545,378.994 258.816,506.721 329.128,514.308 					"/>
					<polygon fill="#0197F8" points="499.12,352.47 568.541,410.839 544.892,478.44 486.865,430.527 					"/>
					<polygon fill="#79D3FE" points="350.213,348.586 297.545,378.994 297.545,571.552 511.919,571.552 499.12,352.47 
						457.919,336.732 					"/>
					<path fill="#FFCDA8" d="M426.894,197.004l29.464,41.071l-9.822,10.559l7.778,14.619c2.982,5.605,1.469,12.543-3.578,16.397
						l-18.039,13.779v75.558l-21.874,28.124l-43.749-43.19v-12.723l4.464-55.804l-11.161-71.426L426.894,197.004z"/>
					<path fill="#FFA163" d="M436.157,224.932l7.366,10.77l-24.443,4.047l-8.926,8.883l0,0c4.66,6.703,3.371,15.864-2.955,21.022
						l-14.792,12.058l-18.415-38.359L436.157,224.932z"/>
					<path fill="#FE61CA" d="M350.54,265.093c0,0-16.056-17.554-17.395-38.192c-1.34-20.636,8.697-29.899,8.697-29.899l32.15-22.002
						c0,0,16.74-6.105,18.415-13.703s-1.101-8.937,6.984-9.941c8.083-1.005,33.864,9.71,25.491,34.486
						c-5.352,15.852-25.471,28.226-39.269,35.086c-7.487,3.721-10.808,12.602-7.628,20.334l4.378,10.645L350.54,265.093z"/>
					<path fill="#9D4EC5" d="M416.821,157.712c1.614,4.734,2.321,10.179-0.085,14.849c-5.692,11.049-47.149,38.049-58.592,53.906
						c-8.222,11.392-1.172,26.464,3.449,34.047l20.769-8.608l-4.377-10.645c-3.182-7.732,0.14-16.612,7.627-20.335
						c13.8-6.858,33.915-19.233,39.27-35.085C429.386,172.518,424.009,163.265,416.821,157.712z"/>
					<path fill="#FFA163" d="M416.514,295.496c-8.537-0.838-24.106-5.859-24.106-5.859s19.474,23.215,40.289,23.27V293.43
						C432.697,293.43,425.053,296.332,416.514,295.496z"/>
					<path fill="#E9E5F6" d="M368.497,323.413c0,0-4.549-0.966-14.593,5.396c-10.044,6.361-5.357,18.079,0,26.785
						c5.357,8.705,28.459,32.812,28.459,32.812l16.406-20.423l-31.695-26.786L368.497,323.413z"/>
					<path fill="#E9E5F6" d="M432.697,349.457v-28.795c0,0,21.652,7.813,25.223,16.07c3.571,8.261-21.651,47.544-21.651,47.544
						l-15.623-18.525L432.697,349.457z"/>
					<polygon fill="#D7D1EB" points="398.769,367.983 410.823,394.099 420.645,365.751 429.467,376.211 415.956,405.258 
						415.956,434.946 404.573,434.946 404.573,404.365 390.846,377.847 					"/>
					<path fill="#3B03A6" d="M403.692,197.211L382.763,214.8c-3.626,3.046-4.22,8.402-1.353,12.171l16.881,22.179
						c2.979,3.913,8.572,4.659,12.473,1.662l19.877-15.279L403.692,197.211z"/>
					<path fill="#535FE9" d="M430.641,235.534l41.447-29.44c3.418-2.429,4.202-7.182,1.738-10.577l-18.132-25.009
						c-2.397-3.308-6.997-4.105-10.364-1.796l-41.639,28.5c-3.471,2.377-4.326,7.137-1.9,10.575l18.321,25.95
						C422.52,237.145,427.24,237.951,430.641,235.534z"/>
					<path fill="#535FE9" d="M373.992,175c0,0-3.57-1.466-6.919,0c-3.348,1.467-23.66,15.501-25.893,18.529
						c-2.231,3.027,0.894,52.803,14.286,66.196c13.393,13.393,16.614-11.092,16.614-11.092S356.136,202.998,373.992,175z"/>
					<polygon fill="#3B03A6" points="358.924,243.205 387.275,219.041 398.865,234.056 369.418,255.708 					"/>
					<circle fill="#3B03A6" cx="372.08" cy="266.534" r="26.786"/>
					<circle fill="#535FE9" cx="368.061" cy="270.141" r="18.235"/>
					<path fill="#FFCDA8" d="M568.541,410.839l22.636-64.284l41.517,16.071l-27.359,106.063
						c-4.021,15.588-21.835,22.996-35.726,14.863l-22-12.885L568.541,410.839z"/>
					<polygon fill="#FFA163" points="591.177,346.555 626.043,388.406 632.696,362.626 					"/>
					<polygon fill="#3B03A6" points="599.325,319.77 608.141,254.593 628.231,251.689 630.24,286.958 					"/>
					<path fill="#535FE9" d="M643.184,339.523l36.831-24.441l23.102-73.324l-16.74-5.356l-22.098,39.171l8.872-37.833l-16.907-3.349
						l-8.706,38.578l-26.109,10.076c-10.584,4.085-18.225,13.46-20.09,24.652l-2.013,12.072L643.184,339.523z"/>
					<polygon fill="#3B03A6" points="599.325,319.77 591.177,346.555 640.332,367.035 643.184,339.523 					"/>
					<polygon fill="#3B03A6" points="655.908,314.189 653.452,291.868 667.739,285.729 680.015,315.082 690.506,261.288 
						674.809,256.907 668.855,277.805 677.336,262.627 684.591,266.199 679.123,300.127 668.408,280.261 648.049,287.947 					"/>
					<polygon fill="#535FE9" points="527.702,464.248 500.413,374.63 504.532,445.119 					"/>
					<polygon fill="#535FE9" points="297.545,378.994 282.051,509.23 297.545,510.901 					"/>
					<path fill="#0197F8" d="M340.525,414.525c0,0,58.859,59.2,73.229,58.785c14.367-0.42,48.341-19.17,48.341-19.17
						s-31.421,41.518-52.785,36.16C387.944,484.944,340.525,414.525,340.525,414.525z"/>
					<polygon fill="#FFA163" points="446.535,248.631 456.358,238.072 439.024,248.631 					"/>
					<path fill="#3B03A6" d="M459.173,189.542l-37.822,25.871c-1.175,0.804-2.78,0.502-3.583-0.672l0,0
						c-0.807-1.175-0.504-2.78,0.672-3.584l37.823-25.871c1.176-0.805,2.777-0.503,3.584,0.672l0,0
						C460.65,187.134,460.35,188.739,459.173,189.542z"/>
				</g>
			</g>
		</g>
		<g>
			
				<circle fill="none" stroke="#FE61CA" stroke-width="2.6132" stroke-linejoin="round" stroke-miterlimit="10" cx="614.782" cy="237.981" r="38.86"/>
			<path fill="none" stroke="#FE61CA" stroke-width="2.6132" stroke-linejoin="round" stroke-miterlimit="10" d="M640.843,209.145
				c24.459-9.238,42.808-12.372,45.57-6.821c3.918,7.87-24.977,30.212-64.539,49.905c-39.562,19.693-74.806,29.276-78.724,21.407
				c-2.764-5.552,10.8-18.304,32.915-32.247"/>
			<circle fill="#FE61CA" cx="568.637" cy="273.125" r="5.504"/>
			<circle fill="#FE61CA" cx="661.971" cy="202.704" r="5.504"/>
		</g>
		<g opacity="0.5">
			<polyline fill="none" stroke="#0197F8" stroke-linejoin="round" stroke-miterlimit="10" points="634.684,56.632 579.982,124.6 
				589.372,42 			"/>
			<polygon fill="none" stroke="#79D3FE" stroke-linejoin="round" stroke-miterlimit="10" points="579.982,124.6 610.023,74.884 
				562.625,66.072 			"/>
			<polygon fill="none" stroke="#79D3FE" stroke-linejoin="round" stroke-miterlimit="10" points="562.625,66.072 589.372,42 
				634.684,56.632 610.023,74.884 			"/>
		</g>
		<g opacity="0.75">
			<polyline fill="none" stroke="#D7D1EB" stroke-linejoin="round" stroke-miterlimit="10" points="768.609,379.724 
				751.661,304.509 803.645,356.42 			"/>
			<polygon fill="none" stroke="#E9E5F6" stroke-linejoin="round" stroke-miterlimit="10" points="751.661,304.509 769.543,352.631 
				801.697,324.683 			"/>
			<polygon fill="none" stroke="#E9E5F6" stroke-linejoin="round" stroke-miterlimit="10" points="801.697,324.683 803.645,356.42 
				768.609,379.724 769.543,352.631 			"/>
		</g>
		<g opacity="0.5">
			<path fill="none" stroke="#FE61CA" stroke-linejoin="round" stroke-miterlimit="10" d="M711.836,397.859
				c-18.407,0-33.328,14.921-33.328,33.33c0,18.406,14.921,33.328,33.328,33.328c18.408,0,33.331-14.922,33.331-33.328
				C745.165,412.78,730.244,397.859,711.836,397.859z M711.836,452.362c-11.694,0-21.175-9.479-21.175-21.173
				c0-11.693,9.48-21.175,21.175-21.175s21.175,9.48,21.175,21.175C733.009,442.881,723.531,452.362,711.836,452.362z"/>
			<path fill="none" stroke="#9D4EC5" stroke-linejoin="round" stroke-miterlimit="10" d="M711.836,397.859v12.155
				c11.694,0,21.175,9.48,21.175,21.175h12.156C745.165,412.78,730.244,397.859,711.836,397.859z"/>
		</g>
		<circle fill="#79D3FE" cx="745.165" cy="260.228" r="4.92"/>
		<circle fill="#79D3FE" cx="516.488" cy="160.843" r="4.396"/>
		<circle fill="#1B034B" cx="464.856" cy="115.963" r="4.394"/>
		<circle fill="#1B034B" cx="634.687" cy="468.912" r="4.396"/>
		<circle fill="#FFFFFF" cx="645.932" cy="130.386" r="2.28"/>
		<circle fill="#1B034B" cx="512.09" cy="335.792" r="2.279"/>
		<circle fill="#1B034B" cx="657.178" cy="490.301" r="2.278"/>
		<circle fill="#1B034B" cx="471.6" cy="318.948" r="2.279"/>
		<path fill="#1B034B" d="M439.02,101.468c1.258,0,2.279,1.019,2.279,2.278c0,1.258-1.021,2.278-2.279,2.278
			c-1.256,0-2.277-1.02-2.277-2.278C436.742,102.487,437.764,101.468,439.02,101.468z"/>
		<circle fill="#1B034B" cx="458.3" cy="24.833" r="2.28"/>
		<circle fill="#FFFFFF" cx="523.158" cy="235.702" r="2.278"/>
		<circle fill="#FFA163" cx="795.681" cy="89.66" r="2.279"/>
		<circle fill="#FFA163" cx="786.126" cy="275.923" r="2.277"/>
		<circle fill="#FFFFFF" cx="804.47" cy="421.199" r="2.28"/>
		<circle fill="#FFFFFF" cx="657.178" cy="394.832" r="2.278"/>
		<circle fill="#FFA163" cx="473.879" cy="167.517" r="2.278"/>
		<circle fill="#FFFFFF" cx="719.099" cy="315.082" r="2.278"/>
		<circle fill="#FFA163" cx="751.661" cy="471.192" r="2.278"/>
		<circle fill="#FFFFFF" cx="540.35" cy="27.112" r="2.278"/>
		<circle fill="#79D3FE" cx="800.075" cy="40.755" r="4.394"/>
		<circle fill="#79D3FE" cx="776.276" cy="442.257" r="4.396"/>
		<path fill="#535FE9" d="M643.524,171.141h-43.861c-2.588,0-4.686-2.098-4.686-4.687l0,0c0-2.59,2.098-4.688,4.686-4.688h43.861
			c2.59,0,4.688,2.098,4.688,4.688l0,0C648.211,169.042,646.112,171.141,643.524,171.141z"/>
		<path fill="#79D3FE" d="M616.906,189.637h-17.244c-2.588,0-4.686-2.099-4.686-4.687l0,0c0-2.589,2.098-4.688,4.686-4.688h17.244
			c2.59,0,4.688,2.098,4.688,4.688l0,0C621.594,187.538,619.493,189.637,616.906,189.637z"/>
		<path fill="#FE61CA" d="M679.972,55.799h-25.419c-1.501,0-2.718-1.216-2.718-2.716l0,0c0-1.5,1.217-2.716,2.718-2.716h25.419
			c1.498,0,2.714,1.216,2.714,2.716l0,0C682.686,54.582,681.47,55.799,679.972,55.799z"/>
		<path fill="#79D3FE" d="M664.543,66.517h-9.99c-1.501,0-2.718-1.216-2.718-2.715l0,0c0-1.5,1.217-2.716,2.718-2.716h9.99
			c1.503,0,2.719,1.216,2.719,2.716l0,0C667.262,65.301,666.046,66.517,664.543,66.517z"/>
		<path fill="#FE61CA" d="M719.948,369.674h-23.84c-1.406,0-2.546-1.143-2.546-2.547l0,0c0-1.408,1.14-2.548,2.546-2.548h23.84
			c1.406,0,2.547,1.14,2.547,2.548l0,0C722.494,368.534,721.354,369.674,719.948,369.674z"/>
		<path fill="#79D3FE" d="M705.479,379.724h-9.371c-1.406,0-2.546-1.14-2.546-2.548l0,0c0-1.406,1.14-2.546,2.546-2.546h9.371
			c1.41,0,2.548,1.142,2.548,2.546l0,0C708.029,378.585,706.889,379.724,705.479,379.724z"/>
		<g opacity="0.75">
			
				<line fill="none" stroke="#FFA163" stroke-linejoin="round" stroke-miterlimit="10" x1="711.226" y1="94.298" x2="735.847" y2="121.653"/>
			
				<line fill="none" stroke="#FFA163" stroke-linejoin="round" stroke-miterlimit="10" x1="679.123" y1="123.188" x2="703.74" y2="150.545"/>
			<polygon fill="none" stroke="#FFCDA8" stroke-linejoin="round" stroke-miterlimit="10" points="741.25,105.67 709.146,134.563 
				679.123,123.188 711.226,94.298 			"/>
			<polygon fill="none" stroke="#FFA163" stroke-linejoin="round" stroke-miterlimit="10" points="765.867,133.027 733.762,161.918 
				703.74,150.545 735.847,121.653 			"/>
			
				<line fill="none" stroke="#FFCDA8" stroke-linejoin="round" stroke-miterlimit="10" x1="709.146" y1="134.563" x2="733.762" y2="161.918"/>
			
				<line fill="none" stroke="#FFCDA8" stroke-linejoin="round" stroke-miterlimit="10" x1="741.25" y1="105.67" x2="765.867" y2="133.027"/>
		</g>
	</g>
	<g id="DESIGNED_BY_FREEPIK">
	</g>
</g>
</svg>
